# xmcd
#
# Track frame offsets:
#	150
#	19329
#	35964
#	53193
#	70008
#	87228
#	103440
#	120771
#	140133
#	157881
#	174183
#	192348
#	208335
#	226299
#	242295
#	258411
#	277353
#	293613
#
# Disc length: 4135 seconds
#
# Revision: 1
# Processed by: cddbd v1.5.1PL0 Copyright (c) Steve Scherf et al.
# Submitted via: audiograbber 1.83.01
#
DISCID=09102512
DTITLE=Various Artist - Chart Hits 02-05
DYEAR=2002
DGENRE=Top 40
TTITLE0=Silverchair - Without You
TTITLE1=Shakira - Underneath Your Clothes
TTITLE2=Fat Joe Feat. Ashanti - What's Luv
TTITLE3=Ali G Feat. Shaggy - Me Julie
TTITLE4=Selwyn - Way Love's Supposed To Be
TTITLE5=Michaelle Branch - All You Wanted
TTITLE6=David Franj - Oxygen
TTITLE7=1200 Techniques - karma
TTITLE8=Tweet - Oops (Oh My)
TTITLE9=X-Cutioners - It's Going Down
TTITLE10=No Doubt - Hella Good
TTITLE11=Garbage - Breaking Up The Girl
TTITLE12=Destiny's Child - Nasty Girl
TTITLE13=Goldtrix Feat. Andrea Brown - It's Love (Trippin')
TTITLE14=Missy Elliott - 4 My People
TTITLE15=Ronan Keating - If Tomorrow Never Comes
TTITLE16=Mis-Teeq - B With Me
TTITLE17=Lasgo - Something
EXTD=
EXTT0=
EXTT1=
EXTT2=
EXTT3=
EXTT4=
EXTT5=
EXTT6=
EXTT7=
EXTT8=
EXTT9=
EXTT10=
EXTT11=
EXTT12=
EXTT13=
EXTT14=
EXTT15=
EXTT16=
EXTT17=
PLAYORDER=
